<svg version="1.2" xmlns="http://www.w3.org/2000/svg" viewBox="0 0 175 175" width="175" height="175"><style>.a{fill:#21243d}</style><path class="a" d="m158.2 139.1l-20.5 20.1c7.8-5.6 14.8-12.3 20.5-20.1zm-150.3-87.9l45-44.1c-19.9 8.6-36 24.4-45 44.1zm97.9-49.3l-104.2 102.1q1 5.1 2.5 10l111.6-109.3q-4.9-1.7-9.9-2.8zm-18.3-1.9q-5.4 0-10.6 0.7l-76 74.4q-0.9 6.1-0.9 12.4 0 0.5 0 0.9l90.2-88.3q-1.3-0.1-2.7-0.1zm40.3 9.8l-118.8 116.4q2.1 4.2 4.6 8.1l122.2-119.8q-3.9-2.5-8-4.7zm31.2 27.4l-123.3 120.8q3.7 2.7 7.6 5l120.6-118.1q-2.2-4-4.9-7.7zm-14.1-15.7l-124.6 122q2.9 3.5 6.1 6.6l124.9-122.4q-3-3.3-6.4-6.2zm24.5 35.1l-114.5 112.1q4.6 1.9 9.5 3.2l108-105.8q-1.3-4.9-3-9.5zm-11.2 82.5c5.4-7.5 9.7-15.9 12.6-24.9l-58.3 57.1c9.1-2.7 17.6-6.8 25.2-12.1zm16.8-51.6q0-3.4-0.3-6.6l-95.6 93.7q4.1 0.4 8.4 0.4 2 0 4-0.1l83.3-81.7q0.2-2.8 0.2-5.7z"/></svg>