<svg version="1.2" xmlns="http://www.w3.org/2000/svg" viewBox="0 0 166 72" width="166" height="72"><style>.a{fill:#ffd17e}</style><path class="a" d="m9.7 4.4c0 2.5-1.9 4.4-4.3 4.4-2.4 0-4.4-1.9-4.4-4.4 0-2.4 2-4.4 4.4-4.4 2.4 0 4.3 2 4.3 4.4zm31.3 0c0 2.5-2 4.4-4.4 4.4-2.4 0-4.3-1.9-4.3-4.4 0-2.4 1.9-4.4 4.3-4.4 2.4 0 4.4 2 4.4 4.4zm31.2 0c0 2.5-1.9 4.4-4.3 4.4-2.4 0-4.4-1.9-4.4-4.4 0-2.4 2-4.4 4.4-4.4 2.4 0 4.3 2 4.3 4.4zm31.3 0c0 2.5-2 4.4-4.4 4.4-2.4 0-4.3-1.9-4.3-4.4 0-2.4 1.9-4.4 4.3-4.4 2.4 0 4.4 2 4.4 4.4zm31.3 0c0 2.5-2 4.4-4.4 4.4-2.4 0-4.4-1.9-4.4-4.4 0-2.4 2-4.4 4.4-4.4 2.4 0 4.4 2 4.4 4.4zm31.2 0c0 2.5-2 4.4-4.4 4.4-2.4 0-4.3-1.9-4.3-4.4 0-2.4 1.9-4.4 4.3-4.4 2.4 0 4.4 2 4.4 4.4zm-156.3 31.6c0 2.4-1.9 4.4-4.3 4.4-2.4 0-4.4-2-4.4-4.4 0-2.4 2-4.4 4.4-4.4 2.4 0 4.3 2 4.3 4.4zm31.3 0c0 2.4-2 4.4-4.4 4.4-2.4 0-4.3-2-4.3-4.4 0-2.4 1.9-4.4 4.3-4.4 2.4 0 4.4 2 4.4 4.4zm31.2 0c0 2.4-1.9 4.4-4.3 4.4-2.4 0-4.4-2-4.4-4.4 0-2.4 2-4.4 4.4-4.4 2.4 0 4.3 2 4.3 4.4zm31.3 0c0 2.4-2 4.4-4.4 4.4-2.4 0-4.3-2-4.3-4.4 0-2.4 1.9-4.4 4.3-4.4 2.4 0 4.4 2 4.4 4.4zm31.3 0c0 2.4-2 4.4-4.4 4.4-2.4 0-4.4-2-4.4-4.4 0-2.4 2-4.4 4.4-4.4 2.4 0 4.4 2 4.4 4.4zm31.2 0c0 2.4-2 4.4-4.4 4.4-2.4 0-4.3-2-4.3-4.4 0-2.4 1.9-4.4 4.3-4.4 2.4 0 4.4 2 4.4 4.4zm-156.3 31.6c0 2.4-1.9 4.4-4.3 4.4-2.4 0-4.4-2-4.4-4.4 0-2.5 2-4.4 4.4-4.4 2.4 0 4.3 1.9 4.3 4.4zm31.3 0c0 2.4-2 4.4-4.4 4.4-2.4 0-4.3-2-4.3-4.4 0-2.5 1.9-4.4 4.3-4.4 2.4 0 4.4 1.9 4.4 4.4zm31.2 0c0 2.4-1.9 4.4-4.3 4.4-2.4 0-4.4-2-4.4-4.4 0-2.5 2-4.4 4.4-4.4 2.4 0 4.3 1.9 4.3 4.4zm31.3 0c0 2.4-2 4.4-4.4 4.4-2.4 0-4.3-2-4.3-4.4 0-2.5 1.9-4.4 4.3-4.4 2.4 0 4.4 1.9 4.4 4.4zm31.3 0c0 2.4-2 4.4-4.4 4.4-2.4 0-4.4-2-4.4-4.4 0-2.5 2-4.4 4.4-4.4 2.4 0 4.4 1.9 4.4 4.4zm31.2 0c0 2.4-2 4.4-4.4 4.4-2.4 0-4.3-2-4.3-4.4 0-2.5 1.9-4.4 4.3-4.4 2.4 0 4.4 1.9 4.4 4.4z"/></svg>