<svg version="1.2" xmlns="http://www.w3.org/2000/svg" viewBox="0 0 167 72" width="167" height="72"><style>.a{fill:#21243d}</style><path class="a" d="m157.3 67.6c0-2.5 1.9-4.4 4.3-4.4 2.4 0 4.4 1.9 4.4 4.4 0 2.4-2 4.4-4.4 4.4-2.4 0-4.3-2-4.3-4.4zm-31.3 0c0-2.5 2-4.4 4.4-4.4 2.4 0 4.3 1.9 4.3 4.4 0 2.4-1.9 4.4-4.3 4.4-2.4 0-4.4-2-4.4-4.4zm-31.2 0c0-2.5 1.9-4.4 4.3-4.4 2.4 0 4.4 1.9 4.4 4.4 0 2.4-2 4.4-4.4 4.4-2.4 0-4.3-2-4.3-4.4zm-31.3 0c0-2.5 2-4.4 4.4-4.4 2.4 0 4.3 1.9 4.3 4.4 0 2.4-1.9 4.4-4.3 4.4-2.4 0-4.4-2-4.4-4.4zm-31.3 0c0-2.5 2-4.4 4.4-4.4 2.4 0 4.4 1.9 4.4 4.4 0 2.4-2 4.4-4.4 4.4-2.4 0-4.4-2-4.4-4.4zm-31.2 0c0-2.5 2-4.4 4.4-4.4 2.4 0 4.3 1.9 4.3 4.4 0 2.4-1.9 4.4-4.3 4.4-2.4 0-4.4-2-4.4-4.4zm156.3-31.6c0-2.4 1.9-4.4 4.3-4.4 2.4 0 4.4 2 4.4 4.4 0 2.4-2 4.4-4.4 4.4-2.4 0-4.3-2-4.3-4.4zm-31.3 0c0-2.4 2-4.4 4.4-4.4 2.4 0 4.3 2 4.3 4.4 0 2.4-1.9 4.4-4.3 4.4-2.4 0-4.4-2-4.4-4.4zm-31.2 0c0-2.4 1.9-4.4 4.3-4.4 2.4 0 4.4 2 4.4 4.4 0 2.4-2 4.4-4.4 4.4-2.4 0-4.3-2-4.3-4.4zm-31.3 0c0-2.4 2-4.4 4.4-4.4 2.4 0 4.3 2 4.3 4.4 0 2.4-1.9 4.4-4.3 4.4-2.4 0-4.4-2-4.4-4.4zm-31.3 0c0-2.4 2-4.4 4.4-4.4 2.4 0 4.4 2 4.4 4.4 0 2.4-2 4.4-4.4 4.4-2.4 0-4.4-2-4.4-4.4zm-31.2 0c0-2.4 2-4.4 4.4-4.4 2.4 0 4.3 2 4.3 4.4 0 2.4-1.9 4.4-4.3 4.4-2.4 0-4.4-2-4.4-4.4zm156.3-31.6c0-2.4 1.9-4.4 4.3-4.4 2.4 0 4.4 2 4.4 4.4 0 2.5-2 4.4-4.4 4.4-2.4 0-4.3-1.9-4.3-4.4zm-31.3 0c0-2.4 2-4.4 4.4-4.4 2.4 0 4.3 2 4.3 4.4 0 2.5-1.9 4.4-4.3 4.4-2.4 0-4.4-1.9-4.4-4.4zm-31.2 0c0-2.4 1.9-4.4 4.3-4.4 2.4 0 4.4 2 4.4 4.4 0 2.5-2 4.4-4.4 4.4-2.4 0-4.3-1.9-4.3-4.4zm-31.3 0c0-2.4 2-4.4 4.4-4.4 2.4 0 4.3 2 4.3 4.4 0 2.5-1.9 4.4-4.3 4.4-2.4 0-4.4-1.9-4.4-4.4zm-31.3 0c0-2.4 2-4.4 4.4-4.4 2.4 0 4.4 2 4.4 4.4 0 2.5-2 4.4-4.4 4.4-2.4 0-4.4-1.9-4.4-4.4zm-31.2 0c0-2.4 2-4.4 4.4-4.4 2.4 0 4.3 2 4.3 4.4 0 2.5-1.9 4.4-4.3 4.4-2.4 0-4.4-1.9-4.4-4.4z"/></svg>