<svg version="1.2" xmlns="http://www.w3.org/2000/svg" viewBox="0 0 191 191" width="191" height="191"><style>.a{fill:#ffd17e}</style><path class="a" d="m172.6 151.8l-22.4 21.9c8.6-6 16.2-13.4 22.4-21.9zm-164-95.9l49.1-48.1c-21.7 9.4-39.3 26.6-49.1 48.1zm106.8-53.8l-113.7 111.4q1.1 5.6 2.8 10.9l121.8-119.3q-5.3-1.8-10.9-3zm-19.9-2.1c-3.9 0-7.8 0.3-11.6 0.7l-82.9 81.3c-0.7 4.4-1 8.9-1 13.5q0 0.5 0 1l98.5-96.4q-1.5-0.1-3-0.1zm44 10.7l-129.6 127.1q2.2 4.5 4.9 8.7l133.4-130.7q-4.2-2.7-8.7-5.1zm34.1 29.9l-134.6 131.9q4 2.9 8.3 5.4l131.6-128.9q-2.4-4.4-5.3-8.4zm-15.5-17.1l-135.9 133.2q3.1 3.7 6.6 7.1l136.3-133.6q-3.3-3.6-7-6.7zm26.7 38.3l-124.8 122.3q5 2.1 10.3 3.5l117.8-115.4q-1.3-5.4-3.3-10.4zm-12.2 90c6-8.2 10.7-17.3 13.8-27.1l-63.6 62.3c9.9-2.9 19.2-7.5 27.4-13.3zm18.4-56.3c0-2.4-0.1-4.8-0.3-7.2l-104.4 102.3q4.6 0.4 9.2 0.4 2.2 0 4.4-0.1l90.9-89.1q0.2-3.1 0.2-6.3z"/></svg>