<svg version="1.2" xmlns="http://www.w3.org/2000/svg" viewBox="0 0 74 165" width="74" height="165"><style>.a{fill:#ffd17e}</style><path class="a" d="m68.6 8.7c-2.5 0-4.4-1.9-4.4-4.3 0-2.4 1.9-4.4 4.4-4.4 2.4 0 4.4 2 4.4 4.4 0 2.4-2 4.3-4.4 4.3zm0 31.3c-2.5 0-4.4-2-4.4-4.4 0-2.4 1.9-4.3 4.4-4.3 2.4 0 4.4 1.9 4.4 4.3 0 2.4-2 4.4-4.4 4.4zm0 31.2c-2.5 0-4.4-1.9-4.4-4.3 0-2.4 1.9-4.4 4.4-4.4 2.4 0 4.4 2 4.4 4.4 0 2.4-2 4.3-4.4 4.3zm0 31.3c-2.5 0-4.4-2-4.4-4.4 0-2.4 1.9-4.3 4.4-4.3 2.4 0 4.4 1.9 4.4 4.3 0 2.4-2 4.4-4.4 4.4zm0 31.3c-2.5 0-4.4-2-4.4-4.4 0-2.4 1.9-4.4 4.4-4.4 2.4 0 4.4 2 4.4 4.4 0 2.4-2 4.4-4.4 4.4zm0 31.2c-2.5 0-4.4-2-4.4-4.4 0-2.4 1.9-4.3 4.4-4.3 2.4 0 4.4 1.9 4.4 4.3 0 2.4-2 4.4-4.4 4.4zm-31.6-156.3c-2.4 0-4.4-1.9-4.4-4.3 0-2.4 2-4.4 4.4-4.4 2.4 0 4.4 2 4.4 4.4 0 2.4-2 4.3-4.4 4.3zm0 31.3c-2.4 0-4.4-2-4.4-4.4 0-2.4 2-4.3 4.4-4.3 2.4 0 4.4 1.9 4.4 4.3 0 2.4-2 4.4-4.4 4.4zm0 31.2c-2.4 0-4.4-1.9-4.4-4.3 0-2.4 2-4.4 4.4-4.4 2.4 0 4.4 2 4.4 4.4 0 2.4-2 4.3-4.4 4.3zm0 31.3c-2.4 0-4.4-2-4.4-4.4 0-2.4 2-4.3 4.4-4.3 2.4 0 4.4 1.9 4.4 4.3 0 2.4-2 4.4-4.4 4.4zm0 31.3c-2.4 0-4.4-2-4.4-4.4 0-2.4 2-4.4 4.4-4.4 2.4 0 4.4 2 4.4 4.4 0 2.4-2 4.4-4.4 4.4zm0 31.2c-2.4 0-4.4-2-4.4-4.4 0-2.4 2-4.3 4.4-4.3 2.4 0 4.4 1.9 4.4 4.3 0 2.4-2 4.4-4.4 4.4zm-31.6-156.3c-2.4 0-4.4-1.9-4.4-4.3 0-2.4 2-4.4 4.4-4.4 2.5 0 4.4 2 4.4 4.4 0 2.4-1.9 4.3-4.4 4.3zm0 31.3c-2.4 0-4.4-2-4.4-4.4 0-2.4 2-4.3 4.4-4.3 2.5 0 4.4 1.9 4.4 4.3 0 2.4-1.9 4.4-4.4 4.4zm0 31.2c-2.4 0-4.4-1.9-4.4-4.3 0-2.4 2-4.4 4.4-4.4 2.5 0 4.4 2 4.4 4.4 0 2.4-1.9 4.3-4.4 4.3zm0 31.3c-2.4 0-4.4-2-4.4-4.4 0-2.4 2-4.3 4.4-4.3 2.5 0 4.4 1.9 4.4 4.3 0 2.4-1.9 4.4-4.4 4.4zm0 31.3c-2.4 0-4.4-2-4.4-4.4 0-2.4 2-4.4 4.4-4.4 2.5 0 4.4 2 4.4 4.4 0 2.4-1.9 4.4-4.4 4.4zm0 31.2c-2.4 0-4.4-2-4.4-4.4 0-2.4 2-4.3 4.4-4.3 2.5 0 4.4 1.9 4.4 4.3 0 2.4-1.9 4.4-4.4 4.4z"/></svg>